<svg width="594" height="597" viewBox="0 0 594 597" fill="none" xmlns="http://www.w3.org/2000/svg">
<g clip-path="url(#clip0_68_565)">
<path d="M850 595.303H-35V597H850V595.303Z" fill="#E6E6E6"/>
<path d="M499.594 141.727V51.956C499.594 45.133 498.208 38.3767 495.516 32.0731C492.824 25.7694 488.878 20.0418 483.903 15.2172C478.929 10.3927 473.023 6.56564 466.524 3.95466C460.024 1.34368 453.058 -0.00011741 446.023 7.69425e-09L249.923 7.69425e-09C242.888 -0.00011741 235.922 1.34365 229.423 3.95457C222.924 6.5655 217.018 10.3925 212.044 15.2169C207.069 20.0414 203.123 25.7689 200.431 32.0725C197.739 38.376 196.353 45.1321 196.353 51.9551V544.443C196.353 558.223 201.997 571.438 212.043 581.182C222.089 590.925 235.715 596.399 249.922 596.399H446.022C460.229 596.399 473.855 590.925 483.901 581.182C493.947 571.438 499.591 558.223 499.591 544.443V205.627C500.486 205.627 501.344 205.282 501.977 204.669C502.61 204.055 502.965 203.223 502.965 202.355V145C502.965 144.132 502.61 143.3 501.977 142.686C501.344 142.072 500.486 141.728 499.591 141.728L499.594 141.727Z" fill="#3F3D56"/>
<path d="M489.534 47.6365V547.082C458.227 545.217 474.152 585.225 448.919 586.482H248.796C238.019 586.483 227.684 582.333 220.062 574.945C212.44 567.556 208.157 557.533 208.154 547.082V47.6365C208.157 37.1853 212.44 27.1632 220.062 19.7746C227.683 12.386 238.018 8.23603 248.794 8.23746H263.553C259.534 17.8232 291.972 20.9428 294.458 20.9455H396.95C407.62 20.9321 433.364 10.4718 432.425 8.23746H448.912C459.683 8.23935 470.014 12.3899 477.631 19.7767C485.249 27.1635 489.53 37.1819 489.534 47.6294V47.6365Z" fill="white"/>
<path d="M194.776 152.723C194.09 152.723 193.432 152.988 192.947 153.458C192.462 153.929 192.189 154.567 192.188 155.232V175.311C192.188 175.976 192.461 176.615 192.946 177.085C193.431 177.556 194.089 177.82 194.776 177.82C195.462 177.82 196.12 177.556 196.605 177.085C197.091 176.615 197.363 175.976 197.363 175.311V155.232C197.363 154.567 197.09 153.929 196.605 153.458C196.12 152.988 195.462 152.723 194.776 152.723Z" fill="#3F3D56"/>
<path d="M194.776 212.959C194.09 212.96 193.432 213.224 192.947 213.695C192.462 214.165 192.189 214.803 192.188 215.469V254.371C192.188 255.036 192.461 255.675 192.946 256.145C193.431 256.616 194.089 256.88 194.776 256.88C195.462 256.88 196.12 256.616 196.605 256.145C197.091 255.675 197.363 255.036 197.363 254.371V215.469C197.363 214.803 197.09 214.165 196.605 213.695C196.12 213.224 195.462 212.96 194.776 212.959Z" fill="#3F3D56"/>
<path d="M194.776 268.174C194.435 268.174 194.099 268.239 193.784 268.366C193.47 268.492 193.185 268.677 192.944 268.91C192.704 269.144 192.513 269.421 192.383 269.726C192.253 270.031 192.186 270.357 192.186 270.687V309.589C192.186 310.255 192.459 310.893 192.944 311.364C193.429 311.835 194.087 312.099 194.774 312.099C195.46 312.099 196.118 311.835 196.604 311.364C197.089 310.893 197.361 310.255 197.361 309.589V270.687C197.362 270.022 197.09 269.383 196.605 268.912C196.12 268.44 195.462 268.175 194.776 268.174Z" fill="#3F3D56"/>
<path d="M421.638 203.021H273.518C268.641 203.016 263.966 201.135 260.518 197.79C257.07 194.446 255.131 189.912 255.125 185.182V123.434C255.131 118.705 257.07 114.17 260.518 110.826C263.966 107.482 268.641 105.601 273.518 105.596C320.781 92.8992 370.352 94.0857 421.637 105.596C426.514 105.6 431.189 107.481 434.638 110.826C438.086 114.17 440.026 118.704 440.031 123.434V185.185C440.026 189.914 438.087 194.448 434.639 197.792C431.191 201.137 426.517 203.018 421.641 203.024L421.638 203.021Z" fill="#F2F2F2"/>
<path d="M436.728 267.738H258.428C257.553 267.737 256.713 267.399 256.094 266.799C255.475 266.199 255.127 265.385 255.126 264.536V221.64C255.127 220.791 255.475 219.977 256.094 219.376C256.713 218.776 257.553 218.438 258.428 218.437H436.728C437.604 218.438 438.443 218.775 439.062 219.376C439.682 219.976 440.03 220.791 440.031 221.64V264.537C440.03 265.386 439.682 266.2 439.062 266.8C438.443 267.4 437.604 267.738 436.729 267.739L436.728 267.738ZM258.428 219.718C257.903 219.719 257.399 219.921 257.028 220.282C256.656 220.642 256.448 221.13 256.447 221.64V264.537C256.448 265.046 256.656 265.535 257.028 265.895C257.399 266.255 257.903 266.458 258.428 266.458H436.728C437.253 266.458 437.757 266.255 438.128 265.895C438.5 265.535 438.709 265.046 438.709 264.537V221.64C438.709 221.13 438.5 220.642 438.128 220.282C437.757 219.921 437.253 219.719 436.728 219.718H258.428Z" fill="#090814"/>
<path d="M313.565 234.118C312.964 234.135 312.392 234.378 311.973 234.797C311.553 235.215 311.319 235.776 311.319 236.36C311.319 236.943 311.553 237.504 311.973 237.923C312.392 238.341 312.964 238.585 313.565 238.601H422.531C422.836 238.616 423.142 238.572 423.43 238.471C423.717 238.371 423.982 238.216 424.207 238.015C424.433 237.815 424.615 237.573 424.744 237.304C424.872 237.035 424.944 236.744 424.956 236.447C424.968 236.151 424.919 235.855 424.812 235.577C424.705 235.299 424.542 235.045 424.333 234.828C424.124 234.612 423.873 234.438 423.594 234.316C423.315 234.195 423.014 234.128 422.708 234.12H313.565V234.118Z" fill="#6C63FF"/>
<path d="M313.565 247.572C312.964 247.588 312.392 247.832 311.973 248.25C311.553 248.669 311.319 249.23 311.319 249.813C311.319 250.397 311.553 250.958 311.973 251.376C312.392 251.795 312.964 252.038 313.565 252.055H422.531C422.836 252.07 423.142 252.025 423.43 251.925C423.717 251.824 423.982 251.669 424.207 251.469C424.433 251.269 424.615 251.027 424.744 250.758C424.872 250.489 424.944 250.197 424.956 249.901C424.968 249.605 424.919 249.309 424.812 249.031C424.705 248.753 424.542 248.499 424.333 248.282C424.124 248.066 423.873 247.892 423.594 247.77C423.315 247.648 423.014 247.582 422.708 247.574H313.565V247.572Z" fill="#6C63FF"/>
<path d="M282.961 252.056C288.067 252.056 292.207 248.041 292.207 243.089C292.207 238.136 288.067 234.122 282.961 234.122C277.855 234.122 273.716 238.136 273.716 243.089C273.716 248.041 277.855 252.056 282.961 252.056Z" fill="#6C63FF"/>
<path d="M436.728 478.288H258.428C257.553 478.287 256.713 477.949 256.094 477.349C255.475 476.748 255.127 475.934 255.126 475.085V432.19C255.127 431.341 255.475 430.527 256.094 429.926C256.713 429.326 257.553 428.988 258.428 428.987H436.728C437.604 428.988 438.443 429.326 439.062 429.926C439.682 430.527 440.03 431.341 440.031 432.19V475.087C440.03 475.936 439.682 476.75 439.063 477.35C438.444 477.951 437.604 478.289 436.729 478.29L436.728 478.288ZM258.428 430.269C257.903 430.269 257.399 430.472 257.028 430.832C256.656 431.192 256.448 431.681 256.447 432.19V475.087C256.448 475.596 256.656 476.085 257.028 476.445C257.399 476.805 257.903 477.008 258.428 477.008L416.473 475.497C417.566 475.497 434.15 469.498 434.151 468.434L438.708 432.186C438.708 431.677 438.499 431.189 438.127 430.828C437.756 430.468 437.252 430.265 436.727 430.265L258.428 430.269Z" fill="#E6E6E6"/>
<path d="M313.569 451.066C312.963 451.064 312.381 451.293 311.948 451.704C311.515 452.114 311.265 452.673 311.252 453.261C311.239 453.848 311.465 454.417 311.88 454.845C312.295 455.272 312.866 455.525 313.471 455.549H422.529C422.833 455.56 423.135 455.513 423.42 455.411C423.705 455.308 423.966 455.152 424.189 454.952C424.412 454.752 424.592 454.511 424.718 454.243C424.845 453.976 424.916 453.686 424.928 453.392C424.939 453.098 424.891 452.804 424.785 452.528C424.68 452.252 424.519 451.998 424.313 451.782C424.106 451.566 423.858 451.392 423.582 451.269C423.306 451.146 423.008 451.077 422.704 451.066H313.569Z" fill="#E6E6E6"/>
<path d="M282.961 462.606C288.067 462.606 292.207 458.591 292.207 453.639C292.207 448.687 288.067 444.672 282.961 444.672C277.855 444.672 273.716 448.687 273.716 453.639C273.716 458.591 277.855 462.606 282.961 462.606Z" fill="#E6E6E6"/>
<path d="M436.728 389.532H258.428C257.553 389.531 256.713 389.194 256.094 388.593C255.475 387.993 255.127 387.179 255.126 386.33V343.434C255.127 342.585 255.475 341.771 256.094 341.17C256.713 340.57 257.553 340.232 258.428 340.231H436.728C437.604 340.232 438.443 340.57 439.062 341.17C439.682 341.771 440.03 342.585 440.031 343.434V386.331C440.03 387.18 439.682 387.994 439.063 388.594C438.444 389.195 437.604 389.533 436.729 389.534L436.728 389.532ZM258.428 341.513C257.903 341.513 257.399 341.716 257.028 342.076C256.656 342.436 256.448 342.925 256.447 343.434V386.331C256.448 386.84 256.656 387.329 257.028 387.689C257.399 388.049 257.903 388.252 258.428 388.252L416.473 386.741C417.566 386.741 434.15 380.742 434.151 379.678L438.708 343.43C438.708 342.921 438.499 342.433 438.127 342.072C437.756 341.712 437.252 341.509 436.727 341.509L258.428 341.513Z" fill="#E6E6E6"/>
<path d="M313.569 362.31C312.963 362.308 312.381 362.537 311.948 362.948C311.515 363.358 311.265 363.917 311.252 364.505C311.239 365.092 311.465 365.661 311.88 366.089C312.295 366.516 312.866 366.769 313.471 366.793H422.529C422.833 366.804 423.135 366.757 423.42 366.655C423.705 366.552 423.966 366.397 424.189 366.196C424.412 365.996 424.592 365.755 424.718 365.487C424.845 365.22 424.916 364.93 424.928 364.636C424.939 364.342 424.891 364.048 424.785 363.772C424.68 363.496 424.519 363.242 424.313 363.026C424.106 362.81 423.858 362.636 423.582 362.513C423.306 362.39 423.008 362.321 422.704 362.31H313.569Z" fill="#E6E6E6"/>
<path d="M282.961 373.85C288.067 373.85 292.207 369.835 292.207 364.883C292.207 359.931 288.067 355.916 282.961 355.916C277.855 355.916 273.716 359.931 273.716 364.883C273.716 369.835 277.855 373.85 282.961 373.85Z" fill="#E6E6E6"/>
<path d="M277.896 162.743C283.306 164.485 288.977 166.249 294.752 165.951C297.363 165.822 299.923 165.202 302.291 164.127C304.736 163.018 306.97 161.513 309.445 160.461C318.539 156.6 327.559 163.195 336.04 165.671C340.271 166.906 344.722 167.202 348.861 165.482C353.435 163.581 356.882 159.954 360.649 156.926C369.582 149.744 380.998 146.13 392.578 146.818C404.158 147.506 415.035 152.444 422.997 160.628C423.691 161.335 424.793 160.263 424.103 159.555C416.834 152.101 407.193 147.23 396.728 145.726C386.263 144.221 375.58 146.17 366.394 151.259C361.765 153.802 358.053 157.282 353.976 160.529C350.005 163.692 345.587 165.73 340.356 165.058C331.338 163.895 323.578 157.16 314.228 157.771C308.255 158.161 303.988 162.52 298.372 163.91C291.666 165.567 284.657 163.32 278.319 161.279C277.364 160.972 276.954 162.433 277.904 162.738L277.896 162.743Z" fill="#3F3D56"/>
<path d="M294.827 170.803C298.018 170.803 300.605 168.295 300.605 165.2C300.605 162.105 298.018 159.596 294.827 159.596C291.637 159.596 289.05 162.105 289.05 165.2C289.05 168.295 291.637 170.803 294.827 170.803Z" fill="#6C63FF"/>
<path d="M344.705 171.052C347.895 171.052 350.482 168.543 350.482 165.448C350.482 162.354 347.895 159.845 344.705 159.845C341.514 159.845 338.927 162.354 338.927 165.448C338.927 168.543 341.514 171.052 344.705 171.052Z" fill="#6C63FF"/>
<path d="M395.36 152.043C398.551 152.043 401.137 149.534 401.137 146.44C401.137 143.345 398.551 140.836 395.36 140.836C392.169 140.836 389.583 143.345 389.583 146.44C389.583 149.534 392.169 152.043 395.36 152.043Z" fill="#6C63FF"/>
<path d="M446.221 554.513H423.303C421.378 554.511 419.533 553.768 418.172 552.448C416.812 551.128 416.046 549.339 416.044 547.472C411.699 536.028 411.151 525.754 416.044 517.175C416.046 515.309 416.812 513.519 418.172 512.2C419.533 510.88 421.378 510.137 423.303 510.135C430.079 505.367 437.981 506.815 446.221 510.135C448.146 510.137 449.991 510.88 451.352 512.2C452.713 513.519 453.478 515.309 453.48 517.175C450.699 526.882 450.899 537.009 453.48 547.472C453.478 549.339 452.713 551.128 451.352 552.448C449.991 553.768 448.146 554.511 446.221 554.513Z" fill="#6C63FF"/>
<path d="M444.006 523.618H425.498C425.191 523.618 424.897 523.5 424.68 523.29C424.463 523.079 424.341 522.794 424.341 522.496C424.341 522.199 424.463 521.913 424.68 521.703C424.897 521.492 425.191 521.374 425.498 521.374H444.008C444.315 521.374 444.609 521.492 444.826 521.703C445.043 521.913 445.165 522.199 445.165 522.496C445.165 522.794 445.043 523.079 444.826 523.29C444.609 523.5 444.315 523.618 444.008 523.618H444.006Z" fill="white"/>
<path d="M444.006 532.593H425.498C425.191 532.593 424.897 532.475 424.68 532.265C424.463 532.054 424.341 531.769 424.341 531.471C424.341 531.174 424.463 530.888 424.68 530.678C424.897 530.467 425.191 530.349 425.498 530.349H444.008C444.315 530.349 444.609 530.467 444.826 530.678C445.043 530.888 445.165 531.174 445.165 531.471C445.165 531.769 445.043 532.054 444.826 532.265C444.609 532.475 444.315 532.593 444.008 532.593H444.006Z" fill="white"/>
<path d="M444.006 541.569H425.498C425.346 541.569 425.195 541.54 425.055 541.483C424.915 541.427 424.787 541.344 424.68 541.24C424.572 541.136 424.487 541.012 424.429 540.876C424.371 540.74 424.341 540.594 424.341 540.446C424.341 540.299 424.371 540.153 424.429 540.017C424.487 539.881 424.572 539.757 424.68 539.653C424.787 539.549 424.915 539.466 425.055 539.41C425.195 539.353 425.346 539.324 425.498 539.324H444.008C444.16 539.324 444.31 539.353 444.451 539.41C444.591 539.466 444.719 539.549 444.826 539.653C444.934 539.757 445.019 539.881 445.077 540.017C445.135 540.153 445.165 540.299 445.165 540.446C445.165 540.594 445.135 540.74 445.077 540.876C445.019 541.012 444.934 541.136 444.826 541.24C444.719 541.344 444.591 541.427 444.451 541.483C444.31 541.54 444.16 541.569 444.008 541.569H444.006Z" fill="white"/>
<path d="M88.7349 216.014L91.0552 198.904C87.2267 196.02 84.4859 191.992 83.2574 187.443C82.0288 182.895 82.3812 178.081 84.2598 173.747C86.1385 169.412 89.4386 165.8 93.6488 163.469C97.8589 161.138 102.744 160.219 107.547 160.855C112.351 161.49 116.804 163.644 120.217 166.982C123.63 170.321 125.813 174.659 126.426 179.323C127.04 183.987 126.051 188.717 123.612 192.78C121.173 196.843 117.42 200.013 112.935 201.798L115.491 221.953L88.7349 216.014Z" fill="#ED9DA0"/>
<path d="M95.5346 532.887L110.336 533.201L107.647 562.848H93.7148L95.5346 532.887Z" fill="#ED9DA0"/>
<path d="M128.455 592.579C128.443 592.105 128.284 591.644 127.998 591.259C127.712 590.873 127.312 590.58 126.852 590.418L115.917 586.231L108.464 572.82L108.35 559.318L92.9874 557.918L90.7657 566.521C90.7657 566.521 95.341 565.992 89.6926 569.794C84.0443 573.596 86.7639 581.032 86.7639 581.032L85.5322 594.932H95.6987L96.2444 586.288C104.152 588.889 106.091 594.932 106.091 594.932H125.8C126.473 594.959 127.13 594.727 127.627 594.287C128.125 593.846 128.422 593.232 128.455 592.579Z" fill="#2F2E41"/>
<path d="M115.68 533.257H135.348L126.528 572.85L111.864 580.688L115.68 533.257Z" fill="#ED9DA0"/>
<path d="M151.853 591.561C151.829 591.06 151.646 590.579 151.33 590.183C151.014 589.786 150.579 589.494 150.086 589.346L138.033 585.055L135.175 580.274L129.818 574.342L129.694 560.501L112.762 559.066L110.313 567.883C110.313 567.883 115.355 567.34 109.13 571.237C102.906 575.133 105.904 582.754 105.904 582.754L104.543 597H115.748L116.349 588.14C125.063 590.805 127.201 597 127.201 597H148.921C150.539 597 151.853 592.894 151.853 591.561Z" fill="#2F2E41"/>
<path d="M99.9606 296.248L84.4417 332.191C79.2687 344.172 77.6292 357.31 79.7061 370.141C79.7061 370.141 88.1753 415.052 90.0606 459.195C91.9458 503.338 87.2488 546.697 87.2488 546.697H117.07L130.091 389.47L132.659 451.576L111.29 548.473L135.518 550.394L164.963 449.239L169.849 383.979L159.254 330.567L99.9578 296.246L99.9606 296.248Z" fill="#2F2E41"/>
<path d="M80.8998 341.589C63.8175 388.762 85.5821 425.928 81.0658 401.953C77.2907 381.917 141.612 320.946 160.973 333.519C160.567 331.485 145.08 290.773 144.984 288.661C144.615 280.503 147.883 271.733 151.692 263.018C154.187 256.285 154.231 250.501 151.812 245.835C149.731 242.001 146.235 239.07 142.022 237.628L129.335 222.767C126.03 218.899 121.156 210.553 115.977 210.584L88.1771 209.621C87.3825 209.158 77.6207 217.3 68.1162 221.295C57.8078 225.632 59.9346 237.468 59.9604 237.619L59.9844 237.761L60.0977 237.862L75.2506 281.123L88.9414 293.568C88.2481 295.519 88.4214 296.983 89.7203 297.823C87.8554 299.164 79.5613 339.183 80.9008 340.584L80.8998 341.589Z" fill="#6C63FF"/>
<path d="M224.794 254.152C222.253 255.136 219.993 256.695 218.201 258.699L191.148 267.694L195.942 280.053L222.869 269.598C225.597 269.783 228.332 269.332 230.844 268.282C237.166 265.737 240.939 260.512 239.268 256.61C237.597 252.708 231.119 251.608 224.794 254.152Z" fill="#ED9DA0"/>
<path d="M106.311 223.707L156.533 289.456L215.403 273.733L212.844 258.838L168.015 267.072L143.007 229.782C134.841 214.472 118.745 211.389 106.311 223.703V223.707Z" fill="#6C63FF"/>
<path d="M127.531 330.846C125.054 329.862 122.371 329.469 119.705 329.697L94.3629 318.185L89.0686 330.041L115.342 340.441C117.133 342.371 119.373 343.857 121.877 344.774C128.109 347.153 134.428 345.964 135.987 342.117C137.547 338.27 133.761 333.224 127.528 330.846H127.531Z" fill="#ED9DA0"/>
<path d="M61.2631 228.377L50.2725 309.503L103.873 337.872L112.705 325.436L74.5666 301.145L83.2986 257.474C88.3948 240.96 79.0294 227.895 61.2658 228.372L61.2631 228.377Z" fill="#6C63FF"/>
<path d="M71.8859 203.774C71.8859 203.774 72.5699 212.662 82.2441 212.913C95.3273 213.252 101.388 213.934 101.388 213.934C101.388 213.934 85.6394 173.061 92.4603 177.471C99.2813 181.88 117.371 164.669 117.371 164.669L122.84 173.15C122.84 173.15 135.663 168.648 121.451 157.62C121.451 157.62 104.495 144.905 86.4949 152.54C68.4944 160.175 71.8859 203.774 71.8859 203.774Z" fill="#090814"/>
</g>
<defs>
<clipPath id="clip0_68_565">
<rect width="885" height="597" fill="white"/>
</clipPath>
</defs>
</svg>
