<svg width="24" height="24" viewBox="0 0 24 24" fill="none" xmlns="http://www.w3.org/2000/svg">
<circle cx="12" cy="8" r="4" stroke="#DFDED4" stroke-linecap="round"/>
<path d="M10.9061 15.5536C12.3879 15.4073 13.8944 15.562 15.2723 15.9999H13.9998C13.4819 15.9999 13.0113 16.1983 12.6561 16.5214C12.1091 16.4859 11.5554 16.4943 11.0047 16.5487C9.50791 16.6965 8.11476 17.1729 6.99985 17.9061C5.885 18.6394 5.11005 19.5878 4.74301 20.6151C4.65011 20.8751 4.36435 21.0107 4.10434 20.9178C3.84442 20.825 3.70897 20.5391 3.80161 20.2792C4.25358 19.0141 5.18581 17.9028 6.45004 17.0712C7.71418 16.2397 9.26575 15.7156 10.9061 15.5536Z" fill="#DFDED4"/>
<path d="M18 14L18 22" stroke="#DFDED4" stroke-linecap="round"/>
<path d="M22 18L14 18" stroke="#DFDED4" stroke-linecap="round"/>
</svg>
