<svg width="549" height="621" viewBox="0 0 549 621" fill="none" xmlns="http://www.w3.org/2000/svg">
<g clip-path="url(#clip0_52_1175)">
<path d="M95.1689 220.067C95.1689 220.067 104.999 253.48 102.05 257.533C99.1015 261.585 133.506 235.257 133.506 235.257C133.506 235.257 120.727 226.144 125.639 212.981L95.1689 220.067Z" fill="#9F616A"/>
<path d="M528.522 147.157H525.223V53.9469C525.223 39.6393 519.705 25.9177 509.884 15.8007C500.062 5.68368 486.74 7.03695e-09 472.85 7.03695e-09H281.13C274.252 -0.000114416 267.442 1.39518 261.088 4.10622C254.733 6.81725 248.96 10.7909 244.096 15.8004C239.233 20.8098 235.375 26.7569 232.743 33.3021C230.111 39.8473 228.756 46.8625 228.756 53.9469V565.302C228.756 579.609 234.274 593.331 244.096 603.448C253.918 613.565 267.239 619.249 281.129 619.249H472.848C486.737 619.248 500.058 613.564 509.879 603.447C519.701 593.33 525.218 579.609 525.218 565.302V213.505H528.517L528.522 147.157Z" fill="#090814"/>
<path d="M514.48 50.3336V568.913C514.479 579.76 510.296 590.163 502.852 597.834C495.407 605.505 485.309 609.818 474.779 609.823H279.12C268.583 609.824 258.478 605.514 251.026 597.841C243.575 590.168 239.388 579.76 239.386 568.907V50.3345C239.389 39.4828 243.576 29.0768 251.027 21.4051C258.479 13.7334 268.583 9.42441 279.118 9.4258H302.852C301.686 12.3778 301.243 15.5794 301.56 18.7493C301.877 21.9192 302.946 24.9603 304.671 27.6054C306.397 30.2504 308.726 32.4183 311.456 33.9186C314.185 35.419 317.231 36.2057 320.324 36.2097H431.87C434.963 36.2058 438.009 35.419 440.738 33.9187C443.468 32.4183 445.798 30.2503 447.523 27.6051C449.249 24.96 450.317 21.9187 450.634 18.7487C450.951 15.5787 450.508 12.3769 449.342 9.42493H474.765C485.296 9.42631 495.394 13.7347 502.842 21.4031C510.289 29.0715 514.475 39.4721 514.48 50.3188V50.3336Z" fill="white"/>
<path d="M376.897 258.511C422.01 258.511 458.58 220.842 458.58 174.374C458.58 127.906 422.01 90.236 376.897 90.236C331.785 90.236 295.214 127.906 295.214 174.374C295.214 220.842 331.785 258.511 376.897 258.511Z" fill="#6C63FF"/>
<path d="M465.983 349.042H292.122C291.268 349.041 290.45 348.691 289.846 348.069C289.243 347.448 288.903 346.605 288.902 345.726V301.304C288.903 300.425 289.243 299.582 289.847 298.96C290.45 298.338 291.268 297.989 292.122 297.988H465.983C466.836 297.989 467.654 298.338 468.258 298.96C468.861 299.582 469.201 300.425 469.202 301.304V345.723C469.201 346.602 468.861 347.445 468.258 348.067C467.654 348.688 466.836 349.038 465.983 349.039V349.042ZM292.122 299.313C291.61 299.313 291.118 299.523 290.756 299.896C290.394 300.269 290.19 300.775 290.19 301.303V345.723C290.19 346.251 290.394 346.757 290.756 347.13C291.118 347.503 291.61 347.713 292.122 347.713H465.983C466.495 347.713 466.986 347.503 467.348 347.13C467.71 346.757 467.914 346.251 467.915 345.723V301.303C467.914 300.775 467.71 300.269 467.348 299.896C466.986 299.523 466.495 299.313 465.983 299.313H292.122Z" fill="#E6E6E6"/>
<path d="M345.89 313.985C345.3 313.997 344.738 314.246 344.325 314.68C343.911 315.115 343.68 315.698 343.68 316.306C343.68 316.914 343.911 317.498 344.325 317.932C344.738 318.366 345.3 318.616 345.89 318.628H452.134C452.727 318.645 453.304 318.42 453.738 318.002C454.171 317.583 454.427 317.006 454.449 316.394C454.472 315.782 454.259 315.187 453.857 314.736C453.455 314.285 452.896 314.016 452.303 313.987H452.204H345.89V313.985Z" fill="#E6E6E6"/>
<path d="M345.891 327.912C345.293 327.912 344.72 328.156 344.297 328.592C343.874 329.027 343.637 329.618 343.637 330.233C343.637 330.849 343.874 331.44 344.297 331.875C344.72 332.31 345.293 332.555 345.891 332.555H452.134C452.728 332.572 453.304 332.347 453.738 331.929C454.171 331.51 454.427 330.932 454.449 330.321C454.472 329.709 454.259 329.113 453.857 328.663C453.455 328.212 452.896 327.943 452.303 327.914H452.204H345.891V327.912Z" fill="#E6E6E6"/>
<path d="M465.983 423.085H292.122C291.268 423.084 290.45 422.735 289.846 422.113C289.243 421.491 288.903 420.648 288.902 419.769V375.347C288.903 374.468 289.243 373.625 289.847 373.004C290.45 372.382 291.268 372.032 292.122 372.031H465.983C466.836 372.032 467.654 372.382 468.258 373.004C468.861 373.625 469.201 374.468 469.202 375.347V419.771C469.2 420.649 468.859 421.491 468.256 422.111C467.653 422.732 466.835 423.081 465.983 423.082V423.085ZM292.122 373.357C291.61 373.358 291.118 373.568 290.756 373.941C290.394 374.314 290.19 374.82 290.19 375.347V419.771C290.19 420.299 290.394 420.804 290.756 421.178C291.118 421.551 291.61 421.76 292.122 421.761H465.983C466.495 421.76 466.986 421.551 467.348 421.178C467.71 420.804 467.914 420.299 467.915 419.771V375.347C467.914 374.82 467.71 374.314 467.348 373.941C466.986 373.568 466.495 373.358 465.983 373.357H292.122Z" fill="#E6E6E6"/>
<path d="M345.891 388.269C345.293 388.269 344.72 388.513 344.297 388.949C343.874 389.384 343.637 389.975 343.637 390.59C343.637 391.206 343.874 391.797 344.297 392.232C344.72 392.667 345.293 392.912 345.891 392.912H452.134C452.432 392.92 452.728 392.868 453.006 392.757C453.284 392.646 453.538 392.48 453.753 392.268C453.969 392.055 454.141 391.801 454.26 391.52C454.379 391.239 454.443 390.936 454.448 390.629C454.453 390.322 454.399 390.017 454.288 389.732C454.178 389.447 454.014 389.187 453.806 388.967C453.597 388.748 453.349 388.573 453.074 388.453C452.8 388.333 452.505 388.271 452.207 388.269H345.891Z" fill="#E6E6E6"/>
<path d="M345.891 402.199C345.293 402.199 344.72 402.444 344.297 402.879C343.874 403.315 343.637 403.905 343.637 404.521C343.637 405.137 343.874 405.727 344.297 406.162C344.72 406.598 345.293 406.842 345.891 406.842H452.134C452.432 406.851 452.728 406.798 453.006 406.687C453.284 406.577 453.538 406.411 453.753 406.198C453.969 405.986 454.141 405.732 454.26 405.45C454.379 405.169 454.443 404.866 454.448 404.559C454.453 404.252 454.399 403.947 454.288 403.662C454.178 403.377 454.014 403.117 453.806 402.898C453.597 402.678 453.349 402.504 453.074 402.384C452.8 402.264 452.505 402.201 452.207 402.199H345.891Z" fill="#E6E6E6"/>
<path d="M465.983 497.371H292.122C291.268 497.37 290.45 497.021 289.846 496.399C289.243 495.777 288.903 494.934 288.902 494.055V449.633C288.903 448.754 289.243 447.911 289.847 447.29C290.45 446.668 291.268 446.318 292.122 446.317H465.983C466.836 446.318 467.654 446.668 468.258 447.29C468.861 447.911 469.201 448.754 469.202 449.633V494.057C469.201 494.936 468.861 495.779 468.258 496.4C467.654 497.022 466.836 497.372 465.983 497.373V497.371ZM292.122 447.643C291.61 447.644 291.118 447.853 290.756 448.227C290.394 448.6 290.19 449.106 290.19 449.633V494.057C290.19 494.584 290.394 495.09 290.756 495.463C291.118 495.836 291.61 496.046 292.122 496.047H465.983C466.495 496.046 466.986 495.836 467.348 495.463C467.71 495.09 467.914 494.584 467.915 494.057V449.633C467.914 449.106 467.71 448.6 467.348 448.227C466.986 447.853 466.495 447.644 465.983 447.643H292.122Z" fill="#E6E6E6"/>
<path d="M345.891 462.557C345.293 462.557 344.72 462.802 344.297 463.237C343.874 463.673 343.637 464.263 343.637 464.879C343.637 465.495 343.874 466.085 344.297 466.52C344.72 466.956 345.293 467.2 345.891 467.2H452.134C452.728 467.218 453.304 466.992 453.738 466.574C454.171 466.156 454.427 465.578 454.449 464.966C454.472 464.355 454.259 463.759 453.857 463.308C453.455 462.858 452.896 462.589 452.303 462.56H452.204H345.891V462.557Z" fill="#E6E6E6"/>
<path d="M345.891 476.487C345.293 476.487 344.72 476.731 344.297 477.167C343.874 477.602 343.637 478.193 343.637 478.808C343.637 479.424 343.874 480.015 344.297 480.45C344.72 480.885 345.293 481.13 345.891 481.13H452.134C452.728 481.147 453.304 480.922 453.738 480.504C454.171 480.085 454.427 479.508 454.449 478.896C454.472 478.285 454.259 477.689 453.857 477.238C453.455 476.787 452.896 476.518 452.303 476.489H452.204H345.891V476.487Z" fill="#E6E6E6"/>
<path d="M626.361 620.869H1.63933C0.733386 620.869 0 620.462 0 619.959C0 619.456 0.734232 619.048 1.63933 619.048H626.361C627.267 619.048 628.001 619.456 628.001 619.959C628.001 620.462 627.267 620.869 626.361 620.869Z" fill="#E6E6E6"/>
<path d="M313.812 337.17C321.28 337.17 327.334 330.934 327.334 323.242C327.334 315.549 321.28 309.313 313.812 309.313C306.344 309.313 300.29 315.549 300.29 323.242C300.29 330.934 306.344 337.17 313.812 337.17Z" fill="#6C63FF"/>
<path d="M307.338 320.64C307.183 320.64 307.057 321.679 307.057 322.961C307.057 324.243 307.183 325.283 307.338 325.283H320.635C320.79 325.304 320.919 324.282 320.922 323C321.008 322.202 320.913 321.394 320.644 320.641H307.338V320.64Z" fill="#E6E6E6"/>
<path d="M313.812 411.487C321.28 411.487 327.334 405.25 327.334 397.558C327.334 389.865 321.28 383.629 313.812 383.629C306.344 383.629 300.29 389.865 300.29 397.558C300.29 405.25 306.344 411.487 313.812 411.487Z" fill="#6C63FF"/>
<path d="M307.338 394.956C307.183 394.956 307.057 395.996 307.057 397.277C307.057 398.559 307.183 399.599 307.338 399.599H320.635C320.79 399.62 320.919 398.598 320.922 397.316C321.008 396.518 320.913 395.711 320.644 394.957L307.338 394.956Z" fill="#E6E6E6"/>
<path d="M313.812 485.772C321.28 485.772 327.334 479.536 327.334 471.844C327.334 464.151 321.28 457.915 313.812 457.915C306.344 457.915 300.29 464.151 300.29 471.844C300.29 479.536 306.344 485.772 313.812 485.772Z" fill="#6C63FF"/>
<path d="M307.338 469.242C307.183 469.242 307.057 470.281 307.057 471.563C307.057 472.845 307.183 473.885 307.338 473.885H320.635C320.79 473.906 320.919 472.884 320.922 471.602C321.008 470.804 320.913 469.996 320.644 469.243L307.338 469.242Z" fill="#E6E6E6"/>
<path d="M359.254 151.268L354.469 156.197L394.544 197.476L399.329 192.548L359.254 151.268Z" fill="white"/>
<path d="M399.328 156.202L394.543 151.273L354.468 192.552L359.253 197.481L399.328 156.202Z" fill="white"/>
<path d="M76.3496 397.433C77.5218 397.006 78.5888 396.319 79.4754 395.421C80.362 394.523 81.0467 393.435 81.4812 392.235C81.9157 391.035 82.0895 389.752 81.9903 388.475C81.8912 387.198 81.5214 385.959 80.9072 384.845L100.837 361.439L85.2796 359.228L68.7357 381.795C66.987 382.982 65.7218 384.788 65.18 386.872C64.6381 388.955 64.8572 391.171 65.7958 393.099C66.7344 395.027 68.3272 396.534 70.2723 397.333C72.2173 398.132 74.3794 398.168 76.3487 397.435L76.3496 397.433Z" fill="#9F616A"/>
<path d="M100.389 604.874H86.4868L79.8728 549.637H100.391L100.389 604.874Z" fill="#9F616A"/>
<path d="M173.164 592.89L159.883 597.136L137.669 546.405L157.264 540.138L173.164 592.89Z" fill="#9F616A"/>
<path d="M89.7425 350.215L69.1528 374.505L85.272 375.999L89.7425 350.215Z" fill="#E6E6E6"/>
<path d="M81.6974 381.524C81.6974 381.524 74.5454 385.207 73.6513 401.783C72.7572 418.359 76.3336 461.642 76.3336 461.642C76.3336 461.642 72.7581 480.979 76.3336 498.475C79.9092 515.971 72.7581 579.507 77.2277 579.507C81.6974 579.507 104.941 582.27 105.835 579.507C106.729 576.744 107.623 535.306 107.623 535.306C107.623 535.306 114.775 514.126 107.623 501.238C107.623 501.238 132.594 546.152 148.746 580.43C152.281 587.932 179.141 579.509 174.671 571.221C170.202 562.933 159.474 525.179 159.474 525.179C159.474 525.179 151.428 497.553 137.125 485.582L144.277 426.648C144.277 426.648 159.475 387.052 150.536 381.527C141.598 376.002 81.6974 381.524 81.6974 381.524Z" fill="#090814"/>
<path d="M108.516 233.267C121.353 233.267 131.759 222.548 131.759 209.325C131.759 196.103 121.353 185.383 108.516 185.383C95.6793 185.383 85.2729 196.103 85.2729 209.325C85.2729 222.548 95.6793 233.267 108.516 233.267Z" fill="#9F616A"/>
<path d="M134.442 233.267L105.546 250.763C105.546 250.763 94.4821 257.181 90.3491 268.259C85.9438 280.065 88.5043 296.688 90.3491 300.488C93.9247 307.855 88.8494 326.272 88.8494 326.272L84.3797 368.631C84.3797 368.631 68.2884 384.284 80.8041 386.126C93.3199 387.968 115.669 385.205 129.079 386.126C142.489 387.047 157.686 388.889 153.216 379.679C148.747 370.468 143.383 364.024 148.747 345.611C152.944 331.199 152.762 277.315 152.485 254.559C152.447 251.434 151.633 248.37 150.122 245.66C148.61 242.949 146.45 240.683 143.847 239.075L134.442 233.267Z" fill="#E5E5E5"/>
<path opacity="0.1" d="M121.483 262.275L124.164 318.447L98.1735 372.662L93.7656 370.934L120.585 320.288L121.483 262.275Z" fill="black"/>
<path opacity="0.1" d="M150.98 330.416V323.968L120.589 375.537L150.98 330.416Z" fill="black"/>
<path d="M92.0196 187.146L88.1802 185.564C88.1802 185.564 96.2161 176.453 107.393 177.245L104.249 173.679C104.249 173.679 111.933 170.51 118.921 178.829C122.593 183.202 126.842 188.342 129.494 194.132H133.609L131.892 198.028L137.903 201.923L131.733 201.226C132.318 204.589 132.117 208.047 131.149 211.315L131.319 214.394C131.319 214.394 124.163 202.99 124.163 201.412V205.368C124.163 205.368 120.32 201.802 120.32 199.425L118.224 202.199L117.176 197.842L104.251 202.199L106.346 198.632L98.3097 199.82L101.454 195.464C101.454 195.464 92.3715 200.613 92.0222 204.971C91.6728 209.33 87.1321 214.875 87.1321 214.875L85.036 210.913C85.036 210.913 81.8893 193.088 92.0196 187.146Z" fill="#090814"/>
<path d="M107.058 400.039C108.138 399.404 109.069 398.533 109.787 397.487C110.505 396.441 110.991 395.246 111.212 393.986C111.433 392.725 111.383 391.43 111.065 390.192C110.748 388.953 110.17 387.802 109.374 386.818L124.958 360.139L109.263 360.808L96.8709 386.041C95.355 387.529 94.4216 389.537 94.2476 391.687C94.0736 393.836 94.6712 395.976 95.9269 397.702C97.1827 399.428 99.0095 400.619 101.061 401.05C103.113 401.481 105.246 401.122 107.058 400.04V400.039Z" fill="#9F616A"/>
<path d="M142.489 245.24L149.193 243.859C149.193 243.859 169.308 259.052 163.05 289.44C156.792 319.828 129.079 365.87 129.079 365.87C129.079 365.87 122.819 374.158 121.033 375.999C119.246 377.84 115.669 375.999 117.457 378.762C119.245 381.525 114.775 383.366 114.775 383.366C114.775 383.366 95.1073 383.366 96.8955 375.999C98.6837 368.632 129.079 316.14 129.079 316.14L124.607 267.336C124.607 267.336 121.032 243.398 142.489 245.24Z" fill="#E5E5E5"/>
<path d="M162.789 592.693C162.789 592.693 153.629 585.774 153.629 589.548C153.629 593.321 143.247 608.418 143.247 608.418C143.247 608.418 126.149 620.999 140.194 620.999C154.239 620.999 160.346 618.483 160.346 618.483L175.003 608.418C175.003 608.418 178.667 604.015 177.446 598.983C176.224 593.951 171.948 587.031 171.948 587.031C171.948 587.031 167.064 593.951 162.789 592.693Z" fill="#090814"/>
<path d="M85.3889 597.176C85.3889 597.176 84.1251 590.666 79.702 593.921C75.2788 597.177 63.2723 606.94 63.2723 606.94C63.2723 606.94 41.155 612.147 55.0571 618.656C68.9593 625.166 100.555 616.053 100.555 616.053C100.555 616.053 101.819 595.223 100.555 595.874C99.291 596.525 86.0208 598.478 85.3889 597.176Z" fill="#090814"/>
</g>
<defs>
<clipPath id="clip0_52_1175">
<rect width="628" height="621" fill="white"/>
</clipPath>
</defs>
</svg>
