<svg width="542" height="528" viewBox="0 0 542 528" fill="none" xmlns="http://www.w3.org/2000/svg">
<g clip-path="url(#clip0_52_1139)">
<path d="M439.008 527.346H46.236V146.823C46.236 65.8646 115.99 0 201.731 0H283.514C369.254 0 439.008 65.8646 439.008 146.823V527.346Z" fill="#F2F2F2"/>
<path d="M357.226 527.346H46.2359V146.824C46.1501 115.802 56.5536 85.5643 75.9315 60.5133C76.6457 59.594 77.3584 58.6867 78.093 57.7894C87.4659 46.1816 98.6201 35.9589 111.187 27.4585C111.897 26.9706 112.61 26.4913 113.333 26.012C123.849 19.1406 135.224 13.5234 147.2 9.28823C147.912 9.03395 148.636 8.77898 149.36 8.53401C160.191 4.88375 171.418 2.38317 182.835 1.07845C183.54 0.987251 184.27 0.916031 184.996 0.844138C196.122 -0.279101 207.343 -0.279101 218.468 0.844138C219.193 0.915365 219.92 0.987256 220.636 1.07912C232.049 2.38423 243.274 4.88481 254.102 8.53469C254.826 8.77899 255.551 9.03394 256.264 9.28956C268.092 13.471 279.335 19.0042 289.739 25.7657C290.462 26.2317 291.185 26.7136 291.898 27.1929C298.942 31.9409 305.559 37.2304 311.68 43.0074C316.589 47.6411 321.164 52.5804 325.373 57.792C326.105 58.6867 326.817 59.594 327.531 60.512C346.91 85.5632 357.314 115.801 357.228 146.824L357.226 527.346Z" fill="#CCCCCC"/>
<path d="M331.937 263.166C341.446 263.166 349.154 255.887 349.154 246.908C349.154 237.93 341.446 230.651 331.937 230.651C322.428 230.651 314.72 237.93 314.72 246.908C314.72 255.887 322.428 263.166 331.937 263.166Z" fill="#6C63FF"/>
<path d="M540.197 528H-21.9887C-22.4893 528 -22.8953 527.458 -22.8953 526.79C-22.8953 526.123 -22.4893 525.58 -21.9887 525.58H540.197C540.698 525.58 541.104 526.122 541.104 526.79C541.104 527.459 540.699 528 540.197 528Z" fill="#E6E6E6"/>
<path d="M271.676 417.101H131.785C129.943 417.11 128.172 416.43 126.86 415.208C125.549 413.986 124.805 412.322 124.79 410.583V115.747C124.805 114.008 125.549 112.344 126.86 111.123C128.171 109.901 129.942 109.22 131.784 109.229H271.676C273.518 109.22 275.289 109.901 276.6 111.123C277.912 112.344 278.656 114.008 278.67 115.747V410.583C278.656 412.322 277.911 413.986 276.6 415.208C275.289 416.43 273.518 417.11 271.676 417.101Z" fill="white"/>
<path d="M278.671 204.628H124.79V206.66H278.671V204.628Z" fill="#CCCCCC"/>
<path d="M279.209 320.575H125.328V322.607H279.209V320.575Z" fill="#CCCCCC"/>
<path d="M175.367 109.229H173.214V418.118H175.367V109.229Z" fill="#CCCCCC"/>
<path d="M229.171 109.229H227.019V418.118H229.171V109.229Z" fill="#CCCCCC"/>
<path d="M436.618 193.778C436.617 194.965 436.47 196.148 436.18 197.302L423.78 247.125C423.362 248.809 422.596 250.398 421.526 251.802C420.457 253.206 419.105 254.397 417.547 255.307C415.989 256.216 414.257 256.827 412.449 257.104C410.641 257.381 408.793 257.318 407.011 256.92L357.318 242.361L354.891 241.653C353.315 242.675 351.54 243.39 349.668 243.757C347.797 244.124 345.867 244.135 343.99 243.79C336.778 242.585 331.784 237.042 332.838 231.402C333.891 225.762 340.592 222.175 347.804 223.373C349.693 223.654 351.503 224.287 353.13 225.235C354.756 226.183 356.167 227.426 357.28 228.894L357.317 228.901L357.443 228.922L400.696 233.974L404.331 192.551C404.666 188.621 406.599 184.965 409.725 182.35C412.85 179.734 416.926 178.362 421.099 178.521C425.272 178.679 429.218 180.356 432.111 183.2C435.004 186.044 436.62 189.834 436.62 193.778L436.618 193.778Z" fill="#ED9DA0"/>
<path d="M436.618 193.778C436.618 194.965 436.471 196.148 436.181 197.302L426.007 249.225C425.588 250.909 424.822 252.498 423.753 253.902C422.683 255.306 421.331 256.496 419.773 257.406C418.216 258.316 416.483 258.927 414.675 259.204C412.868 259.48 411.02 259.418 409.237 259.02L359.544 245.972L361.77 225.654L399.613 230.559L404.333 192.549C404.668 188.618 406.601 184.962 409.726 182.347C412.852 179.732 416.928 178.359 421.101 178.518C425.274 178.676 429.22 180.353 432.113 183.197C435.006 186.041 436.621 189.831 436.621 193.775L436.618 193.778Z" fill="#6C63FF"/>
<path d="M501.158 467.387L489.156 475.742L498.004 487.076L510.007 478.72L501.158 467.387Z" fill="#ED9DA0"/>
<path d="M516.006 490.457L490.491 508.217C488.295 509.742 485.766 510.783 483.089 511.266L476.719 512.405C476.017 512.531 475.291 512.451 474.639 512.177C473.986 511.903 473.438 511.447 473.067 510.871C472.696 510.294 472.52 509.625 472.562 508.952C472.605 508.278 472.864 507.634 473.305 507.103L481.03 497.813L491.198 478.018L491.256 478.068C492.726 479.337 494.958 481.245 495.125 481.338C498.265 481.994 500.677 481.626 502.293 480.242C505.113 477.83 504.544 473.098 504.538 473.053L504.533 473.016L504.566 472.998C504.885 472.795 505.249 472.663 505.63 472.614C506.011 472.565 506.4 472.599 506.765 472.714C508.233 473.22 508.998 475.038 509.108 475.317C510.541 475.507 514.267 479.541 514.567 479.868C516.711 480.234 518.187 480.995 518.954 482.126C519.295 482.69 519.506 483.316 519.572 483.963C519.639 484.609 519.56 485.262 519.34 485.877C518.814 487.718 517.638 489.334 516.006 490.457Z" fill="#2F2E43"/>
<path d="M398.227 500.458H383.315V514.538H398.227V500.458Z" fill="#ED9DA0"/>
<path d="M395.682 527.346H363.984C361.259 527.343 358.569 526.764 356.111 525.652L350.267 523C349.623 522.708 349.089 522.237 348.736 521.651C348.384 521.065 348.229 520.391 348.292 519.719C348.356 519.047 348.635 518.41 349.092 517.892C349.549 517.374 350.163 517 350.851 516.82L362.907 513.67L383.531 503.434L383.547 503.508C383.932 505.352 384.53 508.139 384.604 508.308C386.719 510.596 388.892 511.65 391.062 511.442C394.847 511.08 397.363 506.953 397.388 506.911L397.408 506.879L397.446 506.883C397.831 506.898 398.206 506.996 398.544 507.17C398.882 507.344 399.173 507.589 399.395 507.886C400.258 509.115 399.732 511.009 399.645 511.294C400.679 512.249 401.143 517.585 401.179 518.018C402.674 519.514 403.385 520.953 403.294 522.294C403.214 522.939 402.991 523.561 402.638 524.118C402.286 524.676 401.813 525.157 401.25 525.53C399.669 526.718 397.706 527.36 395.685 527.349L395.682 527.346Z" fill="#2F2E43"/>
<path d="M459.072 280.351H387.604L376.211 504.224H401.379L417.641 402.464L482.894 483.872L506.717 463.519L459.071 402.463L459.072 280.351Z" fill="#2F2E43"/>
<path d="M442.645 141.817C442.643 137.221 441.293 132.714 438.744 128.798C436.194 124.882 432.545 121.71 428.201 119.634C423.858 117.558 418.99 116.659 414.138 117.037C409.286 117.415 404.64 119.056 400.716 121.777C396.792 124.497 393.744 128.192 391.909 132.449C390.074 136.707 389.525 141.362 390.322 145.897C391.119 150.431 393.232 154.669 396.426 158.138C399.62 161.608 403.769 164.174 408.414 165.551L413.506 197.326L439.464 176.901C439.464 176.901 433.856 170.157 430.849 162.551C434.477 160.285 437.453 157.205 439.512 153.587C441.57 149.969 442.647 145.925 442.645 141.817Z" fill="#ED9DA0"/>
<path d="M443.378 249.662L455.051 282.141L389.011 281.44L398.858 251.764L443.378 249.662Z" fill="#ED9DA0"/>
<path d="M437.415 167.228L408.129 176.842L380.443 311.804L437.416 318.372H465.263L443.986 184.162C443.034 178.155 440.798 172.394 437.414 167.228H437.415Z" fill="#6C63FF"/>
<path d="M429.204 325.807L429.714 303.623L415.996 303.342L415.486 325.526C414.119 326.787 413.031 328.292 412.286 329.955C411.541 331.617 411.154 333.402 411.147 335.207C410.988 342.122 415.772 347.828 421.833 347.953C427.894 348.077 432.936 342.572 433.095 335.657C433.171 333.853 432.867 332.053 432.199 330.362C431.531 328.67 430.513 327.121 429.204 325.805V325.807Z" fill="#ED9DA0"/>
<path d="M436.874 157.086C438.244 157.306 439.851 154.172 441.386 151.12C444.602 144.729 446.647 140.669 446.802 134.925C446.934 130.031 445.495 131.316 444.094 120.435C443.632 116.847 437.139 116.853 435.817 115.149C433.585 112.271 437.01 111.084 431.456 109.358C421.054 106.119 416.35 111.151 409.743 111.584C409.576 111.595 406.301 114.619 404.472 114.776C401.267 115.05 396.646 114.576 394.571 109.968C392.633 105.657 391.35 118.255 393.082 119.813C394.598 121.318 395.962 122.954 397.154 124.7C397.224 124.974 394.1 116.084 393.082 118.716C392.349 120.61 391.678 132.858 393.543 133.224C395.102 133.53 408.061 138.23 422.429 128.963C422.939 128.634 422.457 129.159 424.235 133.224C426.476 138.349 426.984 138.63 426.942 140.042C426.858 143.1 424.426 144 425.137 146.009C425.493 146.84 426.126 147.539 426.94 148C427.754 148.461 428.705 148.66 429.649 148.565C431.552 148.194 431.88 145.969 433.26 146.009C434.441 146.043 435.843 147.723 435.968 149.418C436.231 152.99 430.63 153.973 429.649 158.794C429.095 161.516 435.612 156.887 436.87 157.089L436.874 157.086Z" fill="#090814"/>
</g>
<defs>
<clipPath id="clip0_52_1139">
<rect width="564" height="528" fill="white" transform="translate(-22.896)"/>
</clipPath>
</defs>
</svg>
